<svg width="20" height="20" viewBox="0 0 20 20" fill="none" xmlns="http://www.w3.org/2000/svg"><path d="M12.1665 12.5577C12.1665 15.6163 10.8454 18.0958 8.45227 18.0958C6.05909 18.0958 3.5 14.9347 3.5 11.8761C3.5 8.81743 5.44006 7.01953 7.83324 7.01953C10.2264 7.01953 12.1665 9.49905 12.1665 12.5577Z" fill="#4CAB61"></path><path d="M7.83353 12.5577C7.83353 15.6163 9.15455 18.0958 11.5477 18.0958C13.9409 18.0958 16.5 14.9347 16.5 11.8761C16.5 8.81743 14.5599 7.01953 12.1668 7.01953C9.77358 7.01953 7.83353 9.49905 7.83353 12.5577Z" fill="#4CAB61"></path><path d="M9.49242 3.75728C10.1684 4.55313 10.0092 5.77795 9.92995 6.19325C9.91362 6.27881 9.83603 6.33751 9.74399 6.33394C9.29727 6.31662 7.99595 6.19686 7.31995 5.40102C6.64396 4.60517 6.80317 3.38035 6.88242 2.96505C6.89875 2.87949 6.97634 2.82079 7.06838 2.82436C7.51511 2.84168 8.81642 2.96144 9.49242 3.75728Z" fill="#4CAB61"></path></svg>