<svg width="20" height="20" viewBox="0 0 20 20" fill="none" xmlns="http://www.w3.org/2000/svg"><path d="M13.0713 5C12.0638 5 11.0237 5.48199 10.2925 6.27978C10.1788 6.39612 10.0813 6.49585 10 6.59557C9.91875 6.49585 9.82125 6.39612 9.7075 6.27978C8.97625 5.48199 7.93625 5 6.92875 5C4.97875 5 3.5 6.49584 3.5 8.50693C3.5 10.4848 4.3775 11.482 5.82375 12.9612C7.61125 14.7895 9.61 16.651 9.62625 16.6676C9.82776 16.855 10.1397 16.855 10.3412 16.6676C10.3575 16.651 12.3562 14.7895 14.1438 12.9612C15.6225 11.482 16.5 10.4848 16.5 8.50693C16.5 6.49584 15.0213 5 13.0713 5Z" fill="#EC5A51"></path></svg>