<svg width="20" height="20" viewBox="0 0 20 20" fill="none" xmlns="http://www.w3.org/2000/svg"><path d="M10 3.00778C5.55853 2.78751 4.39073 7.29716 4.31035 9.49987C4.31035 9.49987 2.5 9.22903 2.5 11.9374C2.58621 13.5625 3.01724 16 5.08621 16C5.51724 16 6.37931 14.9607 6.37931 12.7499C6.37931 9.462 5.41379 9.61593 5.41379 9.61593C5.70908 4.9271 8.31034 4.10108 10 4.10108C11.6897 4.10108 14.2909 4.9271 14.5862 9.61593C14.5862 9.61593 13.6207 9.462 13.6207 12.7499C13.6207 14.9607 14.4828 16 14.9138 16C16.9828 16 17.4138 13.5625 17.5 11.9374C17.5 9.22903 15.6897 9.49987 15.6897 9.49987C15.6093 7.29716 14.4415 2.78751 10 3.00778Z" fill="#39BEA6"></path></svg>