<svg width="20" height="20" viewBox="0 0 20 20" fill="none" xmlns="http://www.w3.org/2000/svg"><path d="M6.76894 6.00722C7.06034 4.67467 7.91771 3.69905 8.73864 3.34214C9.60824 2.96407 10.2936 2.99389 10.5 3.00608C10.7064 2.99389 11.3918 2.96407 12.2614 3.34214C13.0823 3.69905 13.9397 4.67467 14.2311 6.00722C14.3403 6.5069 14.2863 7.78392 14.0674 8.00601C14.6148 7.50631 14.948 8.17223 14.7838 8.67227C14.568 9.32953 14.1271 10.1624 13.7987 10.1624C13.3903 11.4054 13.0947 11.7322 12.5973 12.2824C12.4948 12.3958 12.3837 12.5186 12.2614 12.6609C12.0972 12.9385 12.1957 13.7602 12.5897 14.16C12.7206 14.2927 12.7941 14.2965 13.0326 14.3087C13.1514 14.3148 13.3111 14.323 13.5393 14.3503C14.5773 14.4744 15.9038 14.633 16.695 15.3349C17.2137 15.7951 17.8294 16.7666 17.9895 17.4849C18.056 17.783 17.7964 18 17.4951 18H3.50492C3.20361 18 2.94403 17.783 3.01048 17.4849C3.17057 16.7666 3.78631 15.7951 4.30499 15.3349C5.09616 14.633 6.42272 14.4744 7.46074 14.3503C7.68887 14.323 7.8486 14.3148 7.9674 14.3087C8.2059 14.2965 8.27942 14.2927 8.41027 14.16C8.80432 13.7602 8.90283 12.9385 8.73864 12.6609C8.61626 12.5186 8.5052 12.3958 8.40272 12.2824C7.90527 11.7322 7.60973 11.4054 7.20131 10.1624C6.87294 10.1624 6.432 9.32953 6.21619 8.67227C6.05201 8.17223 6.38515 7.50631 6.93258 8.00601C6.71366 7.78392 6.65967 6.5069 6.76894 6.00722Z" fill="#A775DA"></path></svg>