<svg width="20" height="20" viewBox="0 0 20 20" fill="none" xmlns="http://www.w3.org/2000/svg"><path d="M8.44053 3.00223C8.59158 2.73271 9.00223 2.83994 9.00223 3.1489V8.84916C8.70409 9.02826 8.50446 9.3632 8.50446 9.74671C8.50446 10.3189 8.95038 10.7829 9.5 10.7829C10.0496 10.7829 10.4955 10.3189 10.4955 9.74671C10.4955 9.3632 10.2959 9.02826 9.99777 8.84916V3.1489C9.99777 2.83994 10.4084 2.73271 10.5595 3.00223L13.8192 8.81845C14.0253 9.18626 14.057 9.63247 13.905 10.0278L12.287 14.2368C12.287 14.2368 13.4822 14.2368 13.4822 15.6184C13.4822 17 12.1548 17 12.1548 17H6.84523C6.84523 17 5.51784 17 5.51784 15.6184C5.51784 14.2369 6.71301 14.2368 6.71301 14.2368L5.09499 10.0278C4.94301 9.63247 4.97468 9.18626 5.18082 8.81845L8.44053 3.00223Z" fill="#6792FF"></path></svg>