<svg width="20" height="20" viewBox="0 0 20 20" fill="none" xmlns="http://www.w3.org/2000/svg"><path d="M12.0628 13.4432C12.3406 12.1105 13.2461 11.0072 13.9114 9.82406C14.2859 9.15797 14.5 8.38694 14.5 7.56522C14.5 5.04393 12.4848 3 10 3C7.51521 3 5.5 5.04393 5.5 7.56522C5.5 8.38694 5.71406 9.15797 6.08861 9.82406C6.75392 11.0072 7.65943 12.1105 7.93724 13.4432L7.96361 13.5697C8.02646 13.8712 8.28877 14.087 8.59255 14.087H11.4074C11.7112 14.087 11.9735 13.8712 12.0364 13.5697L12.0628 13.4432Z" fill="#F8A224"></path><path d="M8.07143 15.3913C8.07143 15.0311 8.35925 14.7391 8.71429 14.7391H11.2857C11.6408 14.7391 11.9286 15.0311 11.9286 15.3913V16.6957C11.9286 17.0558 11.6408 17.3478 11.2857 17.3478H8.71429C8.35925 17.3478 8.07143 17.0558 8.07143 16.6957V15.3913Z" fill="#F8A224"></path></svg>