<svg width="235" height="180" viewBox="0 0 235 180" fill="none" xmlns="http://www.w3.org/2000/svg">
<path d="M33.2207 79V79.5H33.7207H41.5327H42.0327V79V48.13V47.63H41.5327H33.7207H33.2207V48.13V79ZM45.9775 53.506V54.006H46.4775H54.2055H54.7055V53.506V46.87V46.37H54.2055H46.4775H45.9775V46.87V53.506ZM45.9355 79V79.5H46.4355H54.2475H54.7475V79V56.32V55.82H54.2475H46.4355H45.9355V56.32V79ZM185.285 102.698V102.198H184.785H179.951V101.186C179.951 100.692 180.091 100.372 180.288 100.175C180.485 99.9775 180.805 99.838 181.299 99.838H184.743H185.243V99.338V93.332V92.832H184.743H179.283C176.799 92.832 174.828 93.5198 173.479 94.8744C172.131 96.2286 171.475 98.1779 171.475 100.556V102.198H168.111H167.608L167.611 102.701L167.653 108.833L167.656 109.33H168.153H171.391V125V125.5H171.891H179.703H180.203V125V109.33H184.785H185.285V108.83V102.698ZM210.71 117.504L210.91 116.856H210.232H202.42H202.119L201.978 117.121C201.372 118.263 200.016 118.998 198.346 118.998C197.199 118.998 196.292 118.689 195.618 118.119C195.059 117.645 194.626 116.964 194.36 116.05H210.568H211.012L211.064 115.608C211.15 114.876 211.194 114.185 211.194 113.45C211.194 106.529 205.921 101.106 198.346 101.106C190.938 101.106 185.54 106.446 185.54 113.66C185.54 120.873 190.979 126.256 198.346 126.256C204.217 126.256 209.044 122.896 210.71 117.504ZM198.346 108.238C199.434 108.238 200.321 108.519 201.008 109.031C201.546 109.433 201.984 109.995 202.297 110.724H194.549C194.847 109.991 195.27 109.428 195.79 109.026C196.45 108.516 197.304 108.238 198.346 108.238Z" stroke="#4CAB61"/>
</svg>
