<svg width="235" height="180" viewBox="0 0 235 180" fill="none" xmlns="http://www.w3.org/2000/svg">
<path d="M42.4359 55.82H42.0562L41.9543 56.1858L38.9541 66.9489L33.8578 56.19L33.7223 55.904H33.4059H31.3059H30.9837L30.8506 56.1974L26.0373 66.8016L23.0087 56.1829L22.9052 55.82H22.5279H14.3379H13.649L13.8625 56.475L21.2545 79.155L21.367 79.5H21.7299H28.0299H28.3574L28.4883 79.1997L32.4421 70.1248L36.4342 79.2013L36.5656 79.5H36.8919H43.1919H43.5574L43.6683 79.1518L50.8923 56.4718L51.0999 55.82H50.4159H42.4359ZM183.23 101.736C180.7 101.736 178.758 102.386 177.148 103.967L176.247 102.102L176.11 101.82H175.796H170.546H170.046V102.32V125V125.5H170.546H178.358H178.858V125V113.492C178.858 112.095 179.145 111.222 179.65 110.692C180.149 110.168 180.962 109.876 182.264 109.876H185.33H185.83V109.376V102.236V101.736H185.33H183.23ZM211.323 125.5H212.252L211.74 124.725L204.109 113.155L211.027 102.594L211.534 101.82H210.609H201.831H201.55L201.404 102.06L196.913 109.44V94.13V93.63H196.413H188.601H188.101V94.13V125V125.5H188.601H196.413H196.913V125V117.25L201.653 125.255L201.798 125.5H202.083H211.323ZM63.8375 80.256C71.4818 80.256 77.0635 74.9735 77.0635 67.66C77.0635 60.3443 71.4794 55.106 63.8375 55.106C56.1934 55.106 50.6535 60.3465 50.6535 67.66C50.6535 74.9713 56.191 80.256 63.8375 80.256ZM63.8375 72.242C61.3109 72.242 59.4655 70.4192 59.4655 67.702C59.4655 66.3059 59.9388 65.1647 60.7051 64.3753C61.4708 63.5863 62.5563 63.12 63.8375 63.12C66.4035 63.12 68.2515 64.9821 68.2515 67.702C68.2515 69.0753 67.7795 70.2052 67.0088 70.9899C66.2384 71.7742 65.1418 72.242 63.8375 72.242Z" stroke="#47525D"/>
</svg>
