<svg width="235" height="180" viewBox="0 0 235 180" fill="none" xmlns="http://www.w3.org/2000/svg">
<path d="M40.6117 55.82H40.232L40.13 56.1857L37.1299 66.9488L32.0335 56.1899L31.8981 55.904H31.5817H29.4817H29.1595L29.0264 56.1973L24.2131 66.8016L21.1845 56.1828L21.081 55.82H20.7037H12.5137H11.8248L12.0383 56.4749L19.4303 79.1549L19.5427 79.5H19.9057H26.2057H26.5332L26.6641 79.1997L30.6178 70.1248L34.61 79.2013L34.7414 79.5H35.0677H41.3677H41.7332L41.8441 79.1517L49.0681 56.4717L49.2757 55.82H48.5917H40.6117ZM63.9715 55.736C61.4413 55.736 59.4992 56.3864 57.8889 57.9668L56.9877 56.1024L56.8512 55.82H56.5375H51.2875H50.7875V56.32V79V79.5H51.2875H59.0995H59.5995V79V67.492C59.5995 66.0947 59.8857 65.2222 60.3908 64.6921C60.8904 64.1677 61.703 63.876 63.0055 63.876H66.0715H66.5715V63.376V56.236V55.736H66.0715H63.9715ZM168.295 99.506V100.006H168.795H176.523H177.023V99.506V92.87V92.37H176.523H168.795H168.295V92.87V99.506ZM168.253 125V125.5H168.753H176.565H177.065V125V102.32V101.82H176.565H168.753H168.253V102.32V125ZM179.158 108.868H182.816V116.894C182.816 119.516 183.616 121.68 185.12 123.19C186.624 124.7 188.778 125.5 191.38 125.5H196.756H197.256V125V118.196V117.696H196.756H193.774C193.059 117.696 192.533 117.478 192.188 117.137C191.844 116.797 191.628 116.283 191.628 115.592V108.868H196.63H197.13V108.368V102.32V101.82H196.63H191.46V95.726V95.226H190.96H189.322H189.106L188.958 95.3832L178.794 106.177L178.658 106.322V106.52V108.368V108.868H179.158ZM223.58 117.504L223.78 116.856H223.102H215.29H214.99L214.849 117.121C214.242 118.263 212.886 118.998 211.216 118.998C210.07 118.998 209.163 118.689 208.489 118.119C207.929 117.645 207.496 116.964 207.23 116.05H223.438H223.883L223.935 115.608C224.021 114.876 224.064 114.185 224.064 113.45C224.064 106.529 218.791 101.106 211.216 101.106C203.808 101.106 198.41 106.446 198.41 113.66C198.41 120.873 203.849 126.256 211.216 126.256C217.087 126.256 221.914 122.896 223.58 117.504ZM211.216 108.238C212.304 108.238 213.192 108.519 213.878 109.031C214.416 109.433 214.854 109.994 215.168 110.724H207.419C207.718 109.991 208.141 109.428 208.661 109.026C209.321 108.516 210.174 108.238 211.216 108.238Z" stroke="#6792FF"/>
</svg>
