<svg width="235" height="180" viewBox="0 0 235 180" fill="none" xmlns="http://www.w3.org/2000/svg">
<path d="M41.5557 55.19C38.8194 55.19 36.3404 56.3212 34.6122 58.2055C33.0723 56.2837 30.7675 55.19 28.0738 55.19C25.5866 55.19 23.2836 56.2034 21.5876 57.8981L20.8033 56.1183L20.6718 55.82H20.3458H14.8438H14.3438V56.32V79V79.5H14.8438H22.6558H23.1558V79V66.568C23.1558 65.2199 23.439 64.2624 23.9038 63.6529C24.3525 63.0645 25.0146 62.742 25.9318 62.742C26.6102 62.742 27.0797 62.9847 27.3996 63.431C27.7388 63.9042 27.9518 64.6659 27.9518 65.77V79V79.5H28.4518H36.0538H36.5538V79V66.568C36.5538 65.1901 36.8195 64.2342 37.2682 63.633C37.6973 63.0581 38.3433 62.742 39.2878 62.742C40.0023 62.742 40.465 62.9744 40.7721 63.4006C41.1022 63.8586 41.3078 64.6154 41.3078 65.77V79V79.5H41.8078H49.6198H50.1198V79V64.804C50.1198 62.0392 49.2919 59.6368 47.7914 57.9179C46.2856 56.1929 44.1301 55.19 41.5557 55.19ZM174.527 101.82H174.161L174.05 102.169L170.283 114.106L166.478 102.168L166.367 101.82H166.001H157.433H156.69L156.97 102.509L166.21 125.189L166.337 125.5H166.673H173.729H174.067L174.193 125.186L183.307 102.506L183.583 101.82H182.843H174.527ZM184.923 99.506V100.006H185.423H193.151H193.651V99.506V92.87V92.37H193.151H185.423H184.923V92.87V99.506ZM184.881 125V125.5H185.381H193.193H193.693V125V102.32V101.82H193.193H185.381H184.881V102.32V125ZM221.463 117.504L221.663 116.856H220.986H213.174H212.873L212.732 117.121C212.126 118.263 210.77 118.998 209.1 118.998C207.953 118.998 207.046 118.689 206.372 118.119C205.812 117.645 205.38 116.964 205.114 116.05H221.322H221.766L221.818 115.608C221.904 114.876 221.948 114.185 221.948 113.45C221.948 106.529 216.675 101.106 209.1 101.106C201.692 101.106 196.294 106.446 196.294 113.66C196.294 120.873 201.732 126.256 209.1 126.256C214.971 126.256 219.797 122.896 221.463 117.504ZM65.6828 80.256C73.327 80.256 78.9088 74.9734 78.9088 67.66C78.9088 60.3443 73.3247 55.106 65.6828 55.106C58.0386 55.106 52.4988 60.3464 52.4988 67.66C52.4988 74.9713 58.0363 80.256 65.6828 80.256ZM65.6828 72.242C63.1561 72.242 61.3108 70.4192 61.3108 67.702C61.3108 66.3058 61.7841 65.1647 62.5503 64.3752C63.3161 63.5862 64.4016 63.12 65.6828 63.12C68.2488 63.12 70.0968 64.982 70.0968 67.702C70.0968 69.0752 69.6248 70.2052 68.8541 70.9898C68.0837 71.7742 66.9871 72.242 65.6828 72.242ZM209.1 108.238C210.188 108.238 211.075 108.519 211.762 109.031C212.3 109.433 212.737 109.994 213.051 110.724H205.302C205.601 109.991 206.024 109.428 206.544 109.026C207.204 108.516 208.058 108.238 209.1 108.238Z" stroke="#2947B2"/>
</svg>
