<svg width="235" height="180" viewBox="0 0 235 180" fill="none" xmlns="http://www.w3.org/2000/svg">
<path d="M20.2549 62.8676H23.9214V70.8936C23.9214 73.5159 24.7226 75.6802 26.2297 77.1898C27.7368 78.6995 29.8949 79.4996 32.5018 79.4996H37.8888H38.3888V78.9996V72.1956V71.6956H37.8888H34.9007C34.1831 71.6956 33.6564 71.4772 33.3106 71.1361C32.9656 70.7957 32.7493 70.2824 32.7493 69.5916V62.8676H37.7625H38.2625V62.3676V56.3196V55.8196H37.7625H32.581V49.7256V49.2256H32.081H30.4396H30.224L30.076 49.3824L19.8912 60.1764L19.7549 60.3209V60.5196V62.3676V62.8676H20.2549ZM59.7014 55.8196H59.379L59.246 56.1132L58.7098 57.296C56.8435 55.9164 54.5223 55.1476 51.9576 55.1476C44.7336 55.1476 39.5473 60.3732 39.5473 67.6596C39.5473 74.9845 44.7301 80.2556 51.9576 80.2556C54.475 80.2556 56.751 79.5271 58.6082 78.1936L59.0303 79.194L59.1592 79.4996H59.4909H65.5513H66.0513V78.9996V56.3196V55.8196H65.5513H59.7014ZM171.398 125V125.5H171.898H179.726H180.226V125V94.1296V93.6296H179.726H171.898H171.398V94.1296V125ZM207.744 125.5H208.674L208.161 124.724L200.515 113.155L207.447 102.594L207.955 101.82H207.029H198.233H197.952L197.806 102.059L193.304 109.443V94.1296V93.6296H192.804H184.976H184.476V94.1296V125V125.5H184.976H192.804H193.304V125V117.246L198.055 125.255L198.2 125.5H198.485H207.744ZM53.0097 72.3676C50.3523 72.3676 48.4174 70.3781 48.4174 67.6596C48.4174 64.9912 50.3444 63.0356 53.0097 63.0356C55.6751 63.0356 57.6021 64.9912 57.6021 67.6596C57.6021 70.3781 55.6671 72.3676 53.0097 72.3676Z" stroke="#F8A224"/>
</svg>
