<svg width="235" height="180" viewBox="0 0 235 180" fill="none" xmlns="http://www.w3.org/2000/svg">
<path d="M51.0393 71.5043L51.2399 70.8564H50.5617H42.7337H42.4335L42.2924 71.1215C41.6847 72.2631 40.3255 72.9984 38.6514 72.9984C37.5018 72.9984 36.5929 72.6889 35.9174 72.1188C35.3564 71.6454 34.9227 70.9638 34.6562 70.0504H50.8984H51.3429L51.3949 69.609C51.4812 68.8769 51.5246 68.1853 51.5246 67.4504C51.5246 60.5282 46.2403 55.1064 38.6514 55.1064C31.2297 55.1064 25.8203 60.4454 25.8203 67.6604C25.8203 74.8743 31.2706 80.2564 38.6514 80.2564C44.5334 80.2564 49.3699 76.8971 51.0393 71.5043ZM53.9178 70.9364V71.4364H54.4178H69.8212H70.3212V70.9364V63.8384V63.3384H69.8212H54.4178H53.9178V63.8384V70.9364ZM185.449 101.82L185.143 101.818L185.002 102.089L184.273 103.482C182.33 102.003 179.918 101.106 177.28 101.106C170.476 101.106 165.417 106.291 165.417 113.03C165.417 119.858 170.481 124.912 177.28 124.912C179.251 124.912 181.089 124.423 182.711 123.588C182.666 124.706 182.209 125.596 181.5 126.221C180.747 126.886 179.681 127.272 178.459 127.272C177.581 127.272 176.702 127.077 175.991 126.717C175.278 126.357 174.77 125.852 174.552 125.25L174.433 124.92H174.082H166.548H165.941L166.058 125.516C166.607 128.325 168.065 130.59 170.234 132.148C172.398 133.701 175.241 134.53 178.543 134.53C182.386 134.53 185.56 133.398 187.777 131.301C189.997 129.202 191.206 126.185 191.206 122.522V102.362V101.866L190.71 101.862L185.449 101.82ZM38.6514 62.2384C39.742 62.2384 40.6316 62.5191 41.3197 63.0319C41.8589 63.4337 42.2976 63.9952 42.6121 64.7244H34.8455C35.1449 63.9914 35.5687 63.4285 36.0896 63.0269C36.7511 62.5171 37.6067 62.2384 38.6514 62.2384ZM178.585 117.486C177.278 117.486 176.189 117.019 175.427 116.244C174.665 115.47 174.203 114.361 174.203 113.03C174.203 110.443 176.049 108.574 178.585 108.574C181.115 108.574 182.925 110.437 182.925 113.03C182.925 115.663 181.118 117.486 178.585 117.486ZM207.068 126.256C214.726 126.256 220.32 120.975 220.32 113.66C220.32 106.344 214.724 101.106 207.068 101.106C199.41 101.106 193.858 106.346 193.858 113.66C193.858 120.973 199.407 126.256 207.068 126.256ZM207.068 118.242C204.534 118.242 202.686 116.419 202.686 113.702C202.686 112.307 203.16 111.166 203.928 110.376C204.695 109.587 205.783 109.12 207.068 109.12C209.64 109.12 211.492 110.983 211.492 113.702C211.492 115.075 211.019 116.205 210.247 116.99C209.474 117.774 208.375 118.242 207.068 118.242Z" stroke="#A775DA"/>
</svg>
