<svg width="235" height="180" viewBox="0 0 235 180" fill="none" xmlns="http://www.w3.org/2000/svg">
<path d="M26.2148 79V79.5H26.7148H34.5268H35.0268V79V48.13V47.63H34.5268H26.7148H26.2148V48.13V79ZM183.397 101.82H183.031L182.92 102.17L179.153 114.106L175.348 102.168L175.237 101.82H174.871H166.303H165.56L165.84 102.509L175.08 125.189L175.207 125.5H175.543H182.599H182.937L183.063 125.186L192.177 102.506L192.453 101.82H191.713H183.397ZM216.593 117.504L216.793 116.856H216.116H208.304H208.003L207.862 117.121C207.256 118.263 205.899 118.998 204.23 118.998C203.083 118.998 202.176 118.689 201.502 118.119C200.942 117.645 200.509 116.964 200.243 116.05H216.452H216.896L216.948 115.608C217.034 114.876 217.078 114.185 217.078 113.45C217.078 106.529 211.804 101.106 204.23 101.106C196.821 101.106 191.424 106.446 191.424 113.66C191.424 120.873 196.862 126.256 204.23 126.256C210.101 126.256 214.927 122.896 216.593 117.504ZM50.8117 80.256C58.4559 80.256 64.0377 74.9734 64.0377 67.66C64.0377 60.3443 58.4536 55.106 50.8117 55.106C43.1675 55.106 37.6277 60.3465 37.6277 67.66C37.6277 74.9713 43.1652 80.256 50.8117 80.256ZM50.8117 72.242C48.2851 72.242 46.4397 70.4192 46.4397 67.702C46.4397 66.3058 46.913 65.1647 47.6792 64.3752C48.445 63.5863 49.5305 63.12 50.8117 63.12C53.3777 63.12 55.2257 64.9821 55.2257 67.702C55.2257 69.0753 54.7537 70.2052 53.983 70.9899C53.2126 71.7742 52.116 72.242 50.8117 72.242ZM204.23 108.238C205.318 108.238 206.205 108.519 206.891 109.031C207.43 109.433 207.867 109.995 208.181 110.724H200.432C200.731 109.991 201.154 109.428 201.674 109.026C202.334 108.516 203.187 108.238 204.23 108.238Z" stroke="#EC5A51"/>
</svg>
