<svg width="235" height="180" viewBox="0 0 235 180" fill="none" xmlns="http://www.w3.org/2000/svg">
<path d="M40.589 55.1899C37.8526 55.1899 35.3736 56.3212 33.6454 58.2055C32.1055 56.2836 29.8007 55.1899 27.107 55.1899C24.6198 55.1899 22.3168 56.2034 20.6208 57.898L19.8365 56.1183L19.705 55.8199H19.379H13.877H13.377V56.3199V78.9999V79.4999H13.877H21.689H22.189V78.9999V66.5679C22.189 65.2199 22.4722 64.2624 22.937 63.6529C23.3857 63.0645 24.0478 62.7419 24.965 62.7419C25.6434 62.7419 26.1129 62.9847 26.4328 63.431C26.772 63.9042 26.985 64.6658 26.985 65.7699V78.9999V79.4999H27.485H35.087H35.587V78.9999V66.5679C35.587 65.1901 35.8527 64.2342 36.3014 63.633C36.7305 63.0581 37.3765 62.7419 38.321 62.7419C39.0355 62.7419 39.4982 62.9744 39.8053 63.4005C40.1354 63.8586 40.341 64.6154 40.341 65.7699V78.9999V79.4999H40.841H48.653H49.153V78.9999V64.8039C49.153 62.0392 48.3251 59.6368 46.8246 57.9179C45.3188 56.1929 43.1633 55.1899 40.589 55.1899ZM75.884 56.3199V55.8199H75.384H67.572H67.072V56.3199V68.9619C67.072 70.0526 66.7802 70.8669 66.3054 71.4021C65.8374 71.9297 65.1426 72.2419 64.212 72.2419C63.3003 72.2419 62.6043 71.9387 62.1314 71.4147C61.6531 70.8846 61.352 70.0715 61.352 68.9619V56.3199V55.8199H60.852H53.04H52.54V56.3199V69.2979C52.54 72.5926 53.7106 75.345 55.7812 77.2713C57.8481 79.1942 60.7706 80.2559 64.212 80.2559C67.6737 80.2559 70.5967 79.1945 72.659 77.2708C74.7248 75.3439 75.884 72.5912 75.884 69.2979V56.3199ZM174.014 109.25V109.75H174.514H181.864H182.373L182.364 109.241C182.319 106.804 181.285 104.753 179.493 103.321C177.71 101.895 175.208 101.106 172.246 101.106C169.269 101.106 166.727 101.861 164.917 103.246C163.096 104.64 162.044 106.655 162.044 109.082C162.044 112.01 163.301 113.804 165.047 114.916C166.75 116.001 168.892 116.422 170.652 116.715L170.658 116.716C171.759 116.886 172.673 117.057 173.31 117.328C173.624 117.461 173.833 117.604 173.96 117.75C174.077 117.884 174.14 118.036 174.14 118.238C174.14 118.648 173.959 118.943 173.663 119.153C173.351 119.374 172.903 119.502 172.414 119.502C171.758 119.502 171.222 119.333 170.86 119.03C170.511 118.739 170.268 118.279 170.268 117.566V117.066H169.768H162.25H161.741L161.75 117.574C161.794 120.165 162.807 122.354 164.644 123.888C166.472 125.414 169.074 126.256 172.246 126.256C175.35 126.256 177.978 125.459 179.841 124.003C181.715 122.538 182.784 120.429 182.784 117.902C182.784 116.403 182.472 115.197 181.921 114.225C181.369 113.253 180.595 112.545 179.716 112.018C178.037 111.012 175.928 110.645 174.179 110.341L174.013 110.312C172.925 110.12 172.019 109.949 171.382 109.686C171.067 109.556 170.86 109.419 170.734 109.281C170.62 109.155 170.562 109.017 170.562 108.83C170.562 108.452 170.706 108.18 170.948 107.989C171.204 107.789 171.609 107.65 172.162 107.65C172.782 107.65 173.241 107.801 173.537 108.048C173.819 108.284 174.014 108.657 174.014 109.25ZM185.487 99.5059V100.006H185.987H193.715H194.215V99.5059V92.8699V92.3699H193.715H185.987H185.487V92.8699V99.5059ZM185.445 125V125.5H185.945H193.757H194.257V125V102.32V101.82H193.757H185.945H185.445V102.32V125ZM222.507 115.537L222.589 114.966H222.012H214.326H213.959L213.849 115.317C213.282 117.131 211.749 118.284 209.874 118.284C207.459 118.284 205.67 116.406 205.67 113.66C205.67 110.964 207.451 109.12 209.874 109.12C211.728 109.12 213.253 110.211 213.811 111.847L213.926 112.186H214.284H221.928H222.506L222.423 111.614C221.503 105.306 216.534 101.148 209.916 101.148C202.311 101.148 196.858 106.35 196.858 113.66C196.858 120.966 202.348 126.256 209.874 126.256C216.498 126.256 221.588 121.924 222.507 115.537Z" stroke="#64C7B5"/>
</svg>
